<svg width="40" height="40" viewBox="0 0 40 40" fill="none" xmlns="http://www.w3.org/2000/svg">
<mask id="mask0_6174_1366" style="mask-type:luminance" maskUnits="userSpaceOnUse" x="16" y="0" width="24" height="20">
<path d="M16 0H39.2926V20H16V0Z" fill="white"/>
</mask>
<g mask="url(#mask0_6174_1366)">
<mask id="mask1_6174_1366" style="mask-type:luminance" maskUnits="userSpaceOnUse" x="16" y="0" width="24" height="21">
<path d="M39.3079 10.0149L33.4812 20.0297H21.8277L16 10.0149L21.8277 0H33.4812L39.3079 10.0149Z" fill="white"/>
</mask>
<g mask="url(#mask1_6174_1366)">
<path d="M39.3079 10.0149L33.4812 20.0297H21.8277L16 10.0149L21.8277 0H33.4812L39.3079 10.0149Z" stroke="#FFB000" stroke-width="5"/>
</g>
</g>
<mask id="mask2_6174_1366" style="mask-type:luminance" maskUnits="userSpaceOnUse" x="16" y="20" width="24" height="20">
<path d="M16 20H39.2926V40H16V20Z" fill="white"/>
</mask>
<g mask="url(#mask2_6174_1366)">
<mask id="mask3_6174_1366" style="mask-type:luminance" maskUnits="userSpaceOnUse" x="16" y="20" width="24" height="21">
<path d="M39.3079 30.0149L33.4812 40.0297H21.8277L16 30.0149L21.8277 20H33.4812L39.3079 30.0149Z" fill="white"/>
</mask>
<g mask="url(#mask3_6174_1366)">
<path d="M39.3079 30.0149L33.4812 40.0297H21.8277L16 30.0149L21.8277 20H33.4812L39.3079 30.0149Z" stroke="#FFB000" stroke-width="5"/>
</g>
</g>
<mask id="mask4_6174_1366" style="mask-type:luminance" maskUnits="userSpaceOnUse" x="0" y="10" width="24" height="20">
<path d="M0 10H23.2926V30H0V10Z" fill="white"/>
</mask>
<g mask="url(#mask4_6174_1366)">
<mask id="mask5_6174_1366" style="mask-type:luminance" maskUnits="userSpaceOnUse" x="0" y="10" width="24" height="21">
<path d="M23.3079 20.0149L17.4812 30.0297H5.8277L0 20.0149L5.8277 10H17.4812L23.3079 20.0149Z" fill="white"/>
</mask>
<g mask="url(#mask5_6174_1366)">
<path d="M23.3079 20.0149L17.4812 30.0297H5.8277L0 20.0149L5.8277 10H17.4812L23.3079 20.0149Z" stroke="#FFB000" stroke-width="5"/>
</g>
</g>
</svg>
